<svg width="2000" height="1649" viewBox="0 0 2000 1649" fill="none" xmlns="http://www.w3.org/2000/svg">
<path fill-rule="evenodd" clip-rule="evenodd" d="M470.219 833.78C512.942 778.857 576.295 748.05 648.082 748.05C730.621 748.05 801.526 788.435 843.376 859.071L1082.26 1272.9H1515.28L1059.88 483.871C1018.03 414.71 947.704 375.18 866.039 375.18C782.924 375.18 711.146 416.461 669.585 488.53L886.091 113.349C927.941 41.2615 999.432 0 1082.84 0C1165.96 0 1237.45 41.2615 1279.3 113.349L1970.1 1310.1C2010.5 1381.59 2009.91 1463.26 1968.65 1534.45C1927.08 1606.82 1855.59 1648.08 1772.19 1648.08H1067.15C887.55 1648.08 827.97 1582.98 741.948 1433.91L649.532 1273.78L556.829 1433.91C470.804 1582.98 411.524 1648.08 231.626 1648.08H0L470.219 833.78Z" fill="#030303"/>
</svg>
